<svg id="图层_1" data-name="图层 1"
    xmlns="http://www.w3.org/2000/svg"
    xmlns:xlink="http://www.w3.org/1999/xlink" viewBox="0 0 819.2 819.2">
    <defs>
        <style>.cls-1{fill:none;}.cls-2{clip-path:url(#clip-path);}.cls-3{fill:#555;}</style>
        <clipPath id="clip-path" transform="translate(310.12 309.48)">
            <rect class="cls-1" x="-310" y="-310" width="819.84" height="820.72"/>
        </clipPath>
    </defs>
    <g class="cls-2">
        <path class="cls-3" d="M99.48,509.72c-225.87,0-409.6-183.73-409.6-409.6s183.73-409.6,409.6-409.6,409.6,183.73,409.6,409.6-183.74,409.6-409.6,409.6Zm0-795.79c-213,0-386.19,173.2-386.19,386.19s173.2,386.19,386.19,386.19,386.19-173.2,386.19-386.19S312.47-286.07,99.48-286.07Zm0,0" transform="translate(310.12 309.48)"/>
    </g>
    <path class="cls-3" d="M270.34,69.69H-71.38A24,24,0,0,1-93.62,54.48c-3.51-9.36-1.17-18.73,5.86-25.75L83.1-130.42c9.36-8.2,23.4-8.2,31.59,0l172,159.15c7,7,9.36,16.39,5.84,25.75s-11.69,15.21-22.23,15.21ZM99.48-112.87l-172,158H270.34Zm184.9,450.56H-85.42c-7,0-11.71-4.68-11.71-11.7s4.68-11.71,11.71-11.71H283.22c7,0,11.7,4.69,11.7,11.71s-4.69,11.7-10.54,11.7ZM-19.89,264c-7,0-11.7-4.68-11.7-11.7V93.1c0-7,4.68-11.7,11.7-11.7s11.7,4.68,11.7,11.7V252.26c0,7-4.68,11.7-11.7,11.7Zm119.37,0c-7,0-11.7-4.68-11.7-11.7V93.1c0-7,4.68-11.7,11.7-11.7s11.7,4.68,11.7,11.7V252.26c0,7-4.68,11.7-11.7,11.7Zm119.37,0c-7,0-11.7-4.68-11.7-11.7V93.1c0-7,4.68-11.7,11.7-11.7s11.7,4.68,11.7,11.7V252.26a11.72,11.72,0,0,1-11.7,11.7Zm10.53,35.11H-30.42c-7,0-11.7-4.68-11.7-11.7s4.68-11.7,11.7-11.7h261c7,0,11.71,4.67,11.71,11.7s-5.86,11.7-12.88,11.7Zm0,0" transform="translate(310.12 309.48)"/>
</svg>