<svg id="图层_1" data-name="图层 1"
    xmlns="http://www.w3.org/2000/svg"
    xmlns:xlink="http://www.w3.org/1999/xlink" viewBox="0 0 819.2 819.2">
    <defs>
        <style>.cls-1{fill:none;}.cls-2{clip-path:url(#clip-path);}.cls-3{fill:#555;}</style>
        <clipPath id="clip-path" transform="translate(310.04 309.84)">
            <rect class="cls-1" x="-309.92" y="-310.36" width="819.84" height="820.72"/>
        </clipPath>
    </defs>
    <g class="cls-2">
        <path class="cls-3" d="M99.56,509.36c-225.87,0-409.6-183.73-409.6-409.6s183.73-409.6,409.6-409.6,409.6,183.73,409.6,409.6-183.74,409.6-409.6,409.6Zm0-795.79c-213,0-386.19,173.2-386.19,386.19S-113.43,486,99.56,486,485.75,312.75,485.75,99.76,312.55-286.43,99.56-286.43Zm0,0" transform="translate(310.04 309.84)"/>
    </g>
    <path class="cls-3" d="M264,253.22c0,78.13-73.43,88.85-164,88.85S-64,331.35-64,253.23,9.43,111.78,100,111.78,264,175.11,264,253.22Z" transform="translate(310.04 309.84)"/>
    <path class="cls-3" d="M100-135A114,114,0,0,0-14-21,114,114,0,0,0,100,93,114,114,0,0,0,214-21,114,114,0,0,0,100-135Zm0,205.2A91.2,91.2,0,0,1,8.8-21,91.2,91.2,0,0,1,100-112.2,91.2,91.2,0,0,1,191.2-21,91.2,91.2,0,0,1,100,70.2Z" transform="translate(310.04 309.84)"/>
</svg>